# xmcd
#
# Track frame offsets:
#	150
#	16281
#	43060
#
# Disc length: 791 seconds
#
# Revision: 1
# Processed by: cddbd v1.5.2PL0 Copyright (c) Steve Scherf et al.
# Submitted via: audiograbber 1.83.01
#
DISCID=1c031503
DTITLE=Glashaus - Maxi
DYEAR=1998
DGENRE=Deutsch
TTITLE0=Wahre Liebe
TTITLE1=Wahre Liebe ( Rap Version )
TTITLE2=In 7 Tagen
EXTD=
EXTT0=
EXTT1=
EXTT2=
PLAYORDER=
